<?xml version="1.0" encoding="UTF-8"?>
<!DOCTYPE svg PUBLIC "-//W3C//DTD SVG 1.1//EN" "http://www.w3.org/Graphics/SVG/1.1/DTD/svg11.dtd">
<svg xmlns="http://www.w3.org/2000/svg" version="1.1" width="4501px" height="4501px" style="shape-rendering:geometricPrecision; text-rendering:geometricPrecision; image-rendering:optimizeQuality; fill-rule:evenodd; clip-rule:evenodd" xmlns:xlink="http://www.w3.org/1999/xlink">
<g><path style="opacity:0.139" fill="#fefefe" d="M -0.5,-0.5 C 1499.83,-0.5 3000.17,-0.5 4500.5,-0.5C 4500.5,1499.83 4500.5,3000.17 4500.5,4500.5C 3000.17,4500.5 1499.83,4500.5 -0.5,4500.5C -0.5,3000.17 -0.5,1499.83 -0.5,-0.5 Z"/></g>
<g><path style="opacity:1" fill="#1f3f62" d="M 839.5,1840.5 C 851.405,1839.78 862.405,1842.62 872.5,1849C 1013.58,1928.4 1154.91,2007.4 1296.5,2086C 1310.84,2096.86 1313.34,2110.03 1304,2125.5C 1296.93,2130.96 1289.43,2135.79 1281.5,2140C 1143.24,2216.6 1005.24,2293.6 867.5,2371C 853.46,2378.28 839.46,2378.28 825.5,2371C 786.662,2348.75 747.662,2326.75 708.5,2305C 699.766,2293.55 699.266,2281.72 707,2269.5C 710.994,2264.98 715.827,2261.98 721.5,2260.5C 723.923,2260.59 726.256,2261.09 728.5,2262C 766.822,2282.49 804.822,2303.49 842.5,2325C 844.833,2325.67 847.167,2325.67 849.5,2325C 978.833,2253 1108.17,2181 1237.5,2109C 1108.49,2036.16 979.156,1963.83 849.5,1892C 847.167,1891.33 844.833,1891.33 842.5,1892C 712.672,1963.75 583.006,2035.75 453.5,2108C 486.244,2127.07 519.244,2145.73 552.5,2164C 556.212,2166.6 557.378,2170.1 556,2174.5C 552.004,2188.15 548.171,2201.82 544.5,2215.5C 517.5,2200.17 490.5,2184.83 463.5,2169.5C 462.56,2217.84 462.06,2266.17 462,2314.5C 462.641,2321.42 464.308,2328.09 467,2334.5C 474.731,2346.57 482.065,2358.91 489,2371.5C 492.248,2384.43 488.081,2393.93 476.5,2400C 466.439,2403.07 457.106,2401.74 448.5,2396C 444.286,2391.45 440.453,2386.62 437,2381.5C 432.676,2388.64 427.509,2395.14 421.5,2401C 405.529,2409.23 393.362,2405.4 385,2389.5C 383.524,2384.92 383.19,2380.26 384,2375.5C 393.493,2357.18 403.493,2339.18 414,2321.5C 414.667,2262.5 414.667,2203.5 414,2144.5C 407.456,2139.14 400.289,2134.64 392.5,2131C 382.458,2123.21 378.958,2113.04 382,2100.5C 385.415,2092.08 391.248,2085.92 399.5,2082C 539.328,2004.59 678.995,1926.92 818.5,1849C 825.347,1845.45 832.347,1842.61 839.5,1840.5 Z"/></g>
<g><path style="opacity:1" fill="#f49326" d="M 946.5,2008.5 C 979.168,2008.33 1011.84,2008.5 1044.5,2009C 1058.26,2015.34 1064.09,2026.17 1062,2041.5C 1062.67,2066.5 1062.67,2091.5 1062,2116.5C 1058.19,2131.94 1048.35,2138.11 1032.5,2135C 1023.64,2131.44 1018.47,2124.94 1017,2115.5C 1016.67,2107.5 1016.33,2099.5 1016,2091.5C 974.5,2131.67 933,2171.83 891.5,2212C 886.862,2216.65 881.529,2220.32 875.5,2223C 866.288,2224.72 858.288,2222.39 851.5,2216C 822.5,2189.67 793.5,2163.33 764.5,2137C 761.926,2134.76 759.092,2132.92 756,2131.5C 753.719,2132.78 751.719,2134.44 750,2136.5C 719.667,2173.83 689.333,2211.17 659,2248.5C 655.491,2252.71 651.658,2256.54 647.5,2260C 640.878,2263.18 634.211,2263.18 627.5,2260C 610.976,2252.49 594.809,2244.32 579,2235.5C 578.333,2233.83 578.333,2232.17 579,2230.5C 583.187,2216.81 587.353,2203.14 591.5,2189.5C 593.074,2188.37 594.741,2188.2 596.5,2189C 606.5,2194.67 616.5,2200.33 626.5,2206C 628.167,2206.67 629.833,2206.67 631.5,2206C 666.219,2164.55 700.219,2122.55 733.5,2080C 745.222,2069.43 757.556,2068.76 770.5,2078C 802.122,2107.47 834.122,2136.47 866.5,2165C 867.833,2165.67 869.167,2165.67 870.5,2165C 908.138,2129.03 945.471,2092.7 982.5,2056C 970.167,2055.67 957.833,2055.33 945.5,2055C 930.55,2048.93 925.383,2038.1 930,2022.5C 933.685,2015.59 939.185,2010.92 946.5,2008.5 Z"/></g>
<g><path style="opacity:1" fill="#1e3f60" d="M 2558.5,2043.5 C 2581.17,2043.5 2603.83,2043.5 2626.5,2043.5C 2626.5,2176.17 2626.5,2308.83 2626.5,2441.5C 2603.83,2441.5 2581.17,2441.5 2558.5,2441.5C 2558.67,2426.83 2558.5,2412.16 2558,2397.5C 2557.28,2398.04 2556.78,2398.71 2556.5,2399.5C 2526.48,2441.47 2485.81,2457.97 2434.5,2449C 2400.71,2440.2 2374.54,2421.03 2356,2391.5C 2335.3,2354.62 2328.97,2315.28 2337,2273.5C 2347.26,2227.6 2373.42,2194.43 2415.5,2174C 2473.08,2154.81 2520.08,2169.31 2556.5,2217.5C 2556.78,2218.29 2557.28,2218.96 2558,2219.5C 2558.5,2160.83 2558.67,2102.17 2558.5,2043.5 Z"/></g>
<g><path style="opacity:1" fill="#1e3f60" d="M 3861.5,2043.5 C 3884.5,2043.5 3907.5,2043.5 3930.5,2043.5C 3930.5,2120.5 3930.5,2197.5 3930.5,2274.5C 3935.18,2274.67 3939.85,2274.5 3944.5,2274C 3973.19,2242.11 4001.52,2209.95 4029.5,2177.5C 4059.16,2176.33 4088.83,2176.17 4118.5,2177C 4080.5,2221 4042.5,2265 4004.5,2309C 4042.5,2353 4080.5,2397 4118.5,2441C 4088.83,2441.67 4059.17,2441.67 4029.5,2441C 4001.5,2409.33 3973.5,2377.67 3945.5,2346C 3940.51,2345.5 3935.51,2345.33 3930.5,2345.5C 3930.5,2377.5 3930.5,2409.5 3930.5,2441.5C 3907.5,2441.5 3884.5,2441.5 3861.5,2441.5C 3861.5,2308.83 3861.5,2176.17 3861.5,2043.5 Z"/></g>
<g><path style="opacity:1" fill="#8e9fae" d="M 2558.5,2043.5 C 2558.67,2102.17 2558.5,2160.83 2558,2219.5C 2557.28,2218.96 2556.78,2218.29 2556.5,2217.5C 2557.17,2159.5 2557.83,2101.5 2558.5,2043.5 Z"/></g>
<g><path style="opacity:1" fill="#1e3f60" d="M 1819.5,2294.5 C 1820.4,2293.79 1820.74,2292.79 1820.5,2291.5C 1774.83,2291.5 1729.17,2291.5 1683.5,2291.5C 1683.5,2270.83 1683.5,2250.17 1683.5,2229.5C 1753.83,2229.5 1824.17,2229.5 1894.5,2229.5C 1902.52,2290.79 1886.69,2344.79 1847,2391.5C 1803.11,2435.58 1749.95,2455.41 1687.5,2451C 1634.58,2445.79 1590.75,2423.29 1556,2383.5C 1512.38,2323.86 1501.38,2258.52 1523,2187.5C 1547.97,2120.87 1595.14,2079.37 1664.5,2063C 1730.86,2051.42 1788.86,2068.08 1838.5,2113C 1853.63,2128.14 1865.63,2145.47 1874.5,2165C 1873.05,2166.56 1871.38,2167.9 1869.5,2169C 1850.77,2178.12 1832.27,2187.62 1814,2197.5C 1785.55,2146.35 1742.05,2123.85 1683.5,2130C 1640.39,2139.13 1609.56,2163.63 1591,2203.5C 1578.12,2238.96 1578.45,2274.29 1592,2309.5C 1621.99,2367.24 1669.16,2390.41 1733.5,2379C 1778.92,2367.75 1807.59,2339.58 1819.5,2294.5 Z"/></g>
<g><path style="opacity:1" fill="#1e3f60" d="M 3047.5,2087.5 C 3047.5,2117.17 3047.5,2146.83 3047.5,2176.5C 3072.83,2176.5 3098.17,2176.5 3123.5,2176.5C 3123.5,2197.5 3123.5,2218.5 3123.5,2239.5C 3097.99,2239.17 3072.66,2239.5 3047.5,2240.5C 3047.33,2276.5 3047.5,2312.5 3048,2348.5C 3050.71,2364.21 3059.88,2373.71 3075.5,2377C 3091.5,2377.5 3107.5,2377.67 3123.5,2377.5C 3123.5,2398.83 3123.5,2420.17 3123.5,2441.5C 3105.83,2441.5 3088.17,2441.5 3070.5,2441.5C 3040.63,2442.31 3015.46,2431.97 2995,2410.5C 2985.53,2397.75 2980.19,2383.42 2979,2367.5C 2978.5,2325.17 2978.33,2282.83 2978.5,2240.5C 2963.34,2239.5 2948.01,2239.17 2932.5,2239.5C 2932.5,2218.5 2932.5,2197.5 2932.5,2176.5C 2947.83,2176.5 2963.17,2176.5 2978.5,2176.5C 2978.33,2151.83 2978.5,2127.16 2979,2102.5C 3001.82,2097.59 3024.65,2092.59 3047.5,2087.5 Z"/></g>
<g><path style="opacity:1" fill="#1e3f60" d="M 2777.5,2165.5 C 2847.21,2163.45 2896.04,2194.11 2924,2257.5C 2932.12,2283.8 2933.62,2310.46 2928.5,2337.5C 2860.83,2337.5 2793.17,2337.5 2725.5,2337.5C 2732.09,2363.92 2748.75,2380.09 2775.5,2386C 2799.59,2390.77 2821.59,2386.1 2841.5,2372C 2846.08,2368.09 2849.92,2363.59 2853,2358.5C 2853.8,2357.2 2854.97,2356.53 2856.5,2356.5C 2877.28,2364.04 2897.94,2371.87 2918.5,2380C 2898.05,2416.25 2867.38,2438.92 2826.5,2448C 2762.76,2460.33 2711.93,2440.49 2674,2388.5C 2651.26,2349.63 2645.59,2308.29 2657,2264.5C 2671.03,2220.47 2699.53,2189.97 2742.5,2173C 2754.08,2169.52 2765.75,2167.02 2777.5,2165.5 Z"/></g>
<g><path style="opacity:1" fill="#1e3f60" d="M 3689.5,2165.5 C 3741.16,2162.26 3784.32,2179.6 3819,2217.5C 3826.04,2226.22 3831.87,2235.72 3836.5,2246C 3816.38,2256.89 3795.71,2267.06 3774.5,2276.5C 3756.62,2243.06 3728.62,2228.22 3690.5,2232C 3657.12,2239.05 3636.62,2259.21 3629,2292.5C 3622.93,2333.19 3638.09,2362.69 3674.5,2381C 3717.26,2393.58 3750.26,2381.08 3773.5,2343.5C 3794.51,2353 3815.17,2363 3835.5,2373.5C 3811.79,2416.67 3775.46,2442.17 3726.5,2450C 3664.77,2457.87 3615.93,2436.7 3580,2386.5C 3556.67,2345.14 3552.33,2301.8 3567,2256.5C 3584.8,2213.36 3615.97,2184.86 3660.5,2171C 3670.23,2168.75 3679.89,2166.92 3689.5,2165.5 Z"/></g>
<g><path style="opacity:1" fill="#1e3f60" d="M 2309.5,2441.5 C 2286.83,2441.5 2264.17,2441.5 2241.5,2441.5C 2241.83,2429.48 2241.5,2417.48 2240.5,2405.5C 2239.89,2405.62 2239.56,2405.96 2239.5,2406.5C 2223.95,2429.62 2202.29,2443.12 2174.5,2447C 2144.55,2451.24 2119.05,2442.74 2098,2421.5C 2081.26,2400.6 2075.6,2376.93 2081,2350.5C 2089.85,2321.31 2108.68,2301.48 2137.5,2291C 2142.17,2289.67 2146.83,2288.33 2151.5,2287C 2181.1,2282.59 2210.76,2278.76 2240.5,2275.5C 2240.02,2256.83 2231.02,2244 2213.5,2237C 2189.51,2228.71 2168.68,2233.54 2151,2251.5C 2147.43,2255.98 2144.93,2260.98 2143.5,2266.5C 2121.76,2259.98 2100.09,2253.14 2078.5,2246C 2077.98,2245.44 2077.64,2244.77 2077.5,2244C 2090.71,2211.13 2114.04,2188.79 2147.5,2177C 2202.17,2160.96 2249.34,2173.13 2289,2213.5C 2299.41,2225.66 2306.08,2239.66 2309,2255.5C 2309.5,2317.5 2309.67,2379.5 2309.5,2441.5 Z"/></g>
<g><path style="opacity:1" fill="#1e3f60" d="M 3465.5,2441.5 C 3465.67,2429.5 3465.5,2417.5 3465,2405.5C 3464.28,2406.04 3463.78,2406.71 3463.5,2407.5C 3448.34,2429.76 3427.34,2442.93 3400.5,2447C 3369.11,2451.54 3342.61,2442.37 3321,2419.5C 3305.11,2398.27 3300.11,2374.61 3306,2348.5C 3315.04,2319.8 3333.87,2300.63 3362.5,2291C 3368.41,2289.02 3374.41,2287.36 3380.5,2286C 3408.84,2282.5 3437.18,2279 3465.5,2275.5C 3465.34,2260.68 3459.01,2249.18 3446.5,2241C 3419.14,2227.46 3394.97,2231.63 3374,2253.5C 3371.06,2257.37 3369.23,2261.71 3368.5,2266.5C 3346.37,2260.18 3324.37,2253.35 3302.5,2246C 3302.03,2244.7 3302.03,2243.2 3302.5,2241.5C 3316.6,2210.24 3339.93,2188.74 3372.5,2177C 3410.7,2165.3 3447.37,2168.96 3482.5,2188C 3507.86,2202.37 3524.7,2223.53 3533,2251.5C 3534.47,2314.81 3534.97,2378.14 3534.5,2441.5C 3511.5,2441.5 3488.5,2441.5 3465.5,2441.5 Z"/></g>
<g><path style="opacity:1" fill="#1e3f60" d="M 1989.5,2297.5 C 1988.5,2345.33 1988.17,2393.33 1988.5,2441.5C 1965.83,2441.5 1943.17,2441.5 1920.5,2441.5C 1920.5,2353.17 1920.5,2264.83 1920.5,2176.5C 1943.17,2176.5 1965.83,2176.5 1988.5,2176.5C 1988.17,2187.85 1988.5,2199.19 1989.5,2210.5C 1990.11,2210.38 1990.44,2210.04 1990.5,2209.5C 2012.27,2180.67 2041.27,2168.34 2077.5,2172.5C 2077.5,2195.5 2077.5,2218.5 2077.5,2241.5C 2046.09,2237.46 2019.92,2247.13 1999,2270.5C 1992.99,2278.52 1989.82,2287.52 1989.5,2297.5 Z"/></g>
<g><path style="opacity:1" fill="#1e3f60" d="M 3301.5,2172.5 C 3301.5,2195.17 3301.5,2217.83 3301.5,2240.5C 3295.64,2240.18 3289.98,2240.51 3284.5,2241.5C 3261.4,2242.13 3241.9,2250.8 3226,2267.5C 3219.85,2275.14 3215.85,2283.81 3214,2293.5C 3213.5,2342.83 3213.33,2392.17 3213.5,2441.5C 3190.83,2441.5 3168.17,2441.5 3145.5,2441.5C 3145.5,2353.17 3145.5,2264.83 3145.5,2176.5C 3168.17,2176.5 3190.83,2176.5 3213.5,2176.5C 3213.33,2187.84 3213.5,2199.17 3214,2210.5C 3235.9,2181.3 3265.07,2168.64 3301.5,2172.5 Z"/></g>
<g><path style="opacity:1" fill="#c6cfd7" d="M 3047.5,2087.5 C 3048.5,2116.66 3048.83,2146 3048.5,2175.5C 3074.01,2175.17 3099.34,2175.5 3124.5,2176.5C 3124.17,2176.5 3123.83,2176.5 3123.5,2176.5C 3098.17,2176.5 3072.83,2176.5 3047.5,2176.5C 3047.5,2146.83 3047.5,2117.17 3047.5,2087.5 Z"/></g>
<g><path style="opacity:1" fill="#576f89" d="M 1988.5,2176.5 C 1989.17,2187.5 1989.83,2198.5 1990.5,2209.5C 1990.44,2210.04 1990.11,2210.38 1989.5,2210.5C 1988.5,2199.19 1988.17,2187.85 1988.5,2176.5 Z"/></g>
<g><path style="opacity:1" fill="#566e88" d="M 2932.5,2176.5 C 2932.5,2197.5 2932.5,2218.5 2932.5,2239.5C 2948.01,2239.17 2963.34,2239.5 2978.5,2240.5C 2962.83,2240.5 2947.17,2240.5 2931.5,2240.5C 2931.17,2218.99 2931.5,2197.66 2932.5,2176.5 Z"/></g>
<g><path style="opacity:1" fill="#fdfdfe" d="M 2860.5,2277.5 C 2815.67,2278.5 2770.67,2278.83 2725.5,2278.5C 2731.8,2254.7 2746.8,2239.2 2770.5,2232C 2799.82,2225.32 2825.65,2231.82 2848,2251.5C 2854.58,2259 2858.75,2267.66 2860.5,2277.5 Z"/></g>
<g><path style="opacity:1" fill="#fefefe" d="M 2466.5,2231.5 C 2506.3,2227.47 2535.13,2243.14 2553,2278.5C 2564.71,2313.63 2557.21,2343.8 2530.5,2369C 2506.33,2386.43 2480,2390.43 2451.5,2381C 2420.62,2367.26 2404.62,2343.43 2403.5,2309.5C 2403.82,2274.68 2419.82,2250.18 2451.5,2236C 2456.58,2234.32 2461.58,2232.82 2466.5,2231.5 Z"/></g>
<g><path style="opacity:1" fill="#566e87" d="M 3123.5,2176.5 C 3123.83,2176.5 3124.17,2176.5 3124.5,2176.5C 3124.5,2197.83 3124.5,2219.17 3124.5,2240.5C 3098.83,2240.5 3073.17,2240.5 3047.5,2240.5C 3072.66,2239.5 3097.99,2239.17 3123.5,2239.5C 3123.5,2218.5 3123.5,2197.5 3123.5,2176.5 Z"/></g>
<g><path style="opacity:1" fill="#6e8398" d="M 3301.5,2172.5 C 3302.5,2195.33 3302.83,2218.33 3302.5,2241.5C 3296.5,2241.5 3290.5,2241.5 3284.5,2241.5C 3289.98,2240.51 3295.64,2240.18 3301.5,2240.5C 3301.5,2217.83 3301.5,2195.17 3301.5,2172.5 Z"/></g>
<g><path style="opacity:1" fill="#c6cfd6" d="M 2860.5,2277.5 C 2861.04,2277.56 2861.38,2277.89 2861.5,2278.5C 2816,2279.83 2770.67,2279.83 2725.5,2278.5C 2770.67,2278.83 2815.67,2278.5 2860.5,2277.5 Z"/></g>
<g><path style="opacity:1" fill="#c4cdd4" d="M 1683.5,2291.5 C 1729.17,2291.5 1774.83,2291.5 1820.5,2291.5C 1820.74,2292.79 1820.4,2293.79 1819.5,2294.5C 1774.34,2292.83 1729.01,2291.83 1683.5,2291.5 Z"/></g>
<g><path style="opacity:1" fill="#1e3f60" d="M 556.5,2294.5 C 572.359,2303.02 588.193,2311.68 604,2320.5C 604.009,2372.58 604.675,2424.58 606,2476.5C 684.752,2521.13 763.586,2565.63 842.5,2610C 847.204,2610.16 851.537,2608.83 855.5,2606C 927.349,2564.91 999.683,2524.57 1072.5,2485C 1079.26,2480.91 1083.76,2475.07 1086,2467.5C 1086.33,2419.17 1086.67,2370.83 1087,2322.5C 1087.47,2321.07 1088.3,2319.9 1089.5,2319C 1104.3,2311.1 1118.96,2302.93 1133.5,2294.5C 1134.67,2360.16 1134.83,2425.83 1134,2491.5C 1131.81,2502.74 1125.64,2510.91 1115.5,2516C 1033.67,2561.41 952.005,2607.08 870.5,2653C 857.363,2659.84 843.696,2661.17 829.5,2657C 746.167,2610.67 662.833,2564.33 579.5,2518C 573.563,2514.78 568.063,2510.95 563,2506.5C 560.19,2502.55 558.19,2498.21 557,2493.5C 556.5,2427.17 556.333,2360.83 556.5,2294.5 Z"/></g>
<g><path style="opacity:1" fill="#fdfdfd" d="M 2234.5,2331.5 C 2236.5,2331.5 2238.5,2331.5 2240.5,2331.5C 2242.44,2359.72 2229.78,2377.56 2202.5,2385C 2189.4,2387.3 2176.4,2386.97 2163.5,2384C 2150.78,2378.39 2146.28,2368.89 2150,2355.5C 2155.71,2346.71 2163.88,2341.55 2174.5,2340C 2194.7,2337.49 2214.7,2334.65 2234.5,2331.5 Z"/></g>
<g><path style="opacity:1" fill="#fdfdfd" d="M 3460.5,2332.5 C 3461.83,2332.5 3463.17,2332.5 3464.5,2332.5C 3464.5,2336.83 3464.5,2341.17 3464.5,2345.5C 3460.68,2366.49 3448.34,2379.66 3427.5,2385C 3415.15,2386.92 3402.82,2386.92 3390.5,2385C 3374.03,2378.59 3369.53,2367.43 3377,2351.5C 3384.67,2344.25 3393.84,2340.08 3404.5,2339C 3423.2,2337 3441.87,2334.83 3460.5,2332.5 Z"/></g>
<g><path style="opacity:1" fill="#b9c3cd" d="M 3460.5,2332.5 C 3461.92,2331.55 3463.59,2331.22 3465.5,2331.5C 3465.82,2336.36 3465.49,2341.03 3464.5,2345.5C 3464.5,2341.17 3464.5,2336.83 3464.5,2332.5C 3463.17,2332.5 3461.83,2332.5 3460.5,2332.5 Z"/></g>
<g><path style="opacity:1" fill="#1e4060" d="M 657.5,2352.5 C 717.887,2385.2 777.887,2418.7 837.5,2453C 843.641,2456.37 849.641,2456.03 855.5,2452C 914.176,2418.33 973.176,2385.16 1032.5,2352.5C 1033.67,2368.16 1033.83,2383.82 1033,2399.5C 1031.35,2405.13 1028.19,2409.63 1023.5,2413C 971.833,2442 920.167,2471 868.5,2500C 853.488,2507.33 838.488,2507.33 823.5,2500C 771.813,2470.97 720.147,2441.97 668.5,2413C 662.916,2408.42 659.416,2402.58 658,2395.5C 657.5,2381.17 657.333,2366.84 657.5,2352.5 Z"/></g>
<g><path style="opacity:1" fill="#6c8197" d="M 2239.5,2406.5 C 2239.56,2405.96 2239.89,2405.62 2240.5,2405.5C 2241.5,2417.48 2241.83,2429.48 2241.5,2441.5C 2264.17,2441.5 2286.83,2441.5 2309.5,2441.5C 2286.67,2442.5 2263.67,2442.83 2240.5,2442.5C 2240.83,2430.32 2240.5,2418.32 2239.5,2406.5 Z"/></g>
<g><path style="opacity:1" fill="#8d9eae" d="M 2558.5,2441.5 C 2557.83,2427.5 2557.17,2413.5 2556.5,2399.5C 2556.78,2398.71 2557.28,2398.04 2558,2397.5C 2558.5,2412.16 2558.67,2426.83 2558.5,2441.5 Z"/></g>
<g><path style="opacity:1" fill="#c6cdd7" d="M 3465.5,2441.5 C 3464.83,2430.17 3464.17,2418.83 3463.5,2407.5C 3463.78,2406.71 3464.28,2406.04 3465,2405.5C 3465.5,2417.5 3465.67,2429.5 3465.5,2441.5 Z"/></g>
<g><path style="opacity:1" fill="#778a9f" d="M 1989.5,2297.5 C 1989.5,2345.83 1989.5,2394.17 1989.5,2442.5C 1966.33,2442.83 1943.33,2442.5 1920.5,2441.5C 1943.17,2441.5 1965.83,2441.5 1988.5,2441.5C 1988.17,2393.33 1988.5,2345.33 1989.5,2297.5 Z"/></g>
<g><path style="opacity:1" fill="#74889c" d="M 2626.5,2043.5 C 2627.5,2176.33 2627.83,2309.33 2627.5,2442.5C 2604.33,2442.83 2581.33,2442.5 2558.5,2441.5C 2581.17,2441.5 2603.83,2441.5 2626.5,2441.5C 2626.5,2308.83 2626.5,2176.17 2626.5,2043.5 Z"/></g>
<g><path style="opacity:1" fill="#7a8da0" d="M 3123.5,2377.5 C 3124.5,2398.99 3124.83,2420.66 3124.5,2442.5C 3106.33,2442.83 3088.33,2442.5 3070.5,2441.5C 3088.17,2441.5 3105.83,2441.5 3123.5,2441.5C 3123.5,2420.17 3123.5,2398.83 3123.5,2377.5 Z"/></g>
<g><path style="opacity:1" fill="#75899d" d="M 3145.5,2176.5 C 3145.5,2264.83 3145.5,2353.17 3145.5,2441.5C 3168.17,2441.5 3190.83,2441.5 3213.5,2441.5C 3190.67,2442.5 3167.67,2442.83 3144.5,2442.5C 3144.17,2353.67 3144.5,2265 3145.5,2176.5 Z"/></g>
</svg>
