<?xml version="1.0" standalone="no"?>
<!DOCTYPE svg PUBLIC "-//W3C//DTD SVG 20010904//EN"
 "http://www.w3.org/TR/2001/REC-SVG-20010904/DTD/svg10.dtd">
<svg version="1.0" xmlns="http://www.w3.org/2000/svg"
 width="4501.000000pt" height="4501.000000pt" viewBox="0 0 4501.000000 4501.000000"
 preserveAspectRatio="xMidYMid meet">

<g transform="translate(0.000000,4501.000000) scale(0.100000,-0.100000)"
fill="#000000" stroke="none">
<path d="M8382 26590 c-24 -5 -68 -20 -98 -34 -103 -47 -4329 -2399 -4371
-2433 -61 -49 -93 -120 -93 -207 1 -127 42 -181 211 -275 61 -33 101 -62 108
-77 8 -18 11 -277 11 -903 l0 -878 -116 -194 c-172 -286 -187 -318 -187 -398
-1 -113 61 -195 170 -227 47 -14 65 -15 109 -5 62 14 124 56 161 111 16 22 41
59 57 82 l29 42 26 -34 c54 -73 117 -134 156 -151 51 -23 161 -25 213 -3 85
35 132 109 132 208 0 75 -27 135 -134 296 -74 111 -97 155 -121 230 -16 50
-18 128 -20 817 -2 420 0 761 4 759 53 -33 815 -456 820 -456 8 0 112 377 118
430 4 27 -1 40 -19 56 -13 12 -185 111 -383 221 -585 325 -625 348 -625 354 0
4 64 42 143 86 2692 1499 3754 2085 3782 2085 23 0 266 -131 881 -475 467
-261 1299 -725 1849 -1032 1143 -637 1190 -664 1179 -674 -5 -4 -355 -200
-779 -436 -423 -235 -1293 -720 -1933 -1077 -874 -487 -1170 -648 -1195 -648
-18 0 -41 6 -52 14 -22 15 -1046 581 -1112 615 -59 30 -101 27 -156 -10 -144
-95 -171 -296 -56 -406 19 -18 158 -100 309 -183 151 -84 417 -231 590 -328
173 -97 338 -184 365 -194 67 -23 162 -23 233 1 31 11 221 113 422 227 201
113 658 368 1015 567 2581 1430 2952 1639 3007 1695 67 71 84 146 53 249 -30
101 -6 86 -1245 777 -630 351 -1603 895 -2164 1209 -560 313 -1042 578 -1071
588 -64 22 -165 31 -223 19z"/>
<path d="M25588 23688 l-3 -882 -38 53 c-96 133 -260 279 -397 354 -313 172
-725 178 -1056 17 -364 -177 -638 -556 -720 -995 -29 -155 -27 -500 4 -653 39
-194 114 -377 218 -533 59 -89 224 -262 313 -330 87 -66 264 -153 375 -184
193 -55 436 -56 631 -5 96 26 239 92 326 151 82 55 225 193 292 281 l52 68 3
-220 2 -220 345 0 345 0 0 1990 0 1990 -345 0 -345 0 -2 -882z m-515 -1035
c124 -44 189 -85 292 -188 103 -103 162 -202 196 -331 30 -111 30 -316 1 -427
-72 -266 -293 -479 -562 -542 -108 -25 -290 -23 -394 4 -260 69 -472 275 -541
526 -26 94 -31 294 -10 396 47 233 191 417 413 528 110 55 196 71 367 68 137
-3 157 -6 238 -34z"/>
<path d="M38620 22580 l0 -1990 345 0 345 0 0 480 0 480 73 0 72 0 425 -479
425 -480 443 0 443 -1 -88 103 c-707 814 -1052 1220 -1047 1228 6 10 1069
1243 1117 1297 l20 22 -441 0 -441 0 -427 -487 -428 -488 -73 -3 -73 -3 0
1156 0 1155 -345 0 -345 0 0 -1990z"/>
<path d="M16840 24399 c-234 -24 -434 -84 -665 -199 -362 -180 -626 -435 -809
-781 -354 -669 -308 -1504 117 -2134 79 -117 310 -348 437 -437 235 -166 523
-283 825 -335 139 -23 459 -24 612 0 848 132 1479 767 1588 1600 15 121 20
406 8 530 l-6 67 -1053 0 -1054 0 0 -310 0 -310 686 0 c648 0 685 -1 680 -17
-3 -10 -12 -46 -21 -80 -79 -316 -336 -594 -670 -726 -148 -59 -273 -81 -465
-81 -178 0 -270 13 -410 61 -342 116 -641 420 -754 766 -48 147 -60 237 -60
437 0 200 12 290 60 437 121 371 453 689 822 787 563 150 1118 -81 1399 -582
l35 -62 206 106 c354 182 402 209 402 220 0 19 -128 235 -186 312 -71 94 -215
244 -303 316 -387 316 -907 467 -1421 415z"/>
<path d="M30185 24064 c-159 -35 -314 -68 -342 -74 l-53 -11 0 -370 0 -369
-235 0 -235 0 2 -317 3 -318 233 -3 232 -2 0 -619 c0 -665 3 -724 49 -859 40
-116 84 -185 176 -277 94 -93 188 -150 320 -194 156 -52 244 -61 598 -61 l317
0 0 319 0 320 -258 3 -258 3 -66 33 c-76 37 -120 82 -157 162 l-26 55 -3 557
-3 558 383 2 383 3 3 318 2 317 -385 0 -385 0 -2 443 -3 443 -290 -62z"/>
<path d="M27737 23339 c-520 -58 -960 -411 -1136 -911 -56 -160 -75 -289 -75
-503 0 -157 4 -210 22 -303 61 -308 196 -547 432 -768 183 -171 430 -293 693
-341 126 -23 408 -23 534 0 335 61 645 239 835 476 69 87 129 181 132 207 1
12 -72 44 -309 133 l-310 118 -31 -47 c-73 -107 -219 -204 -369 -245 -144 -39
-366 -28 -507 25 -126 47 -259 157 -323 266 -27 46 -65 146 -65 171 0 11 172
13 1014 13 l1014 0 12 63 c7 34 15 132 17 217 12 393 -112 719 -381 998 -216
224 -453 356 -739 411 -125 24 -338 33 -460 20z m423 -659 c235 -67 403 -231
454 -442 l6 -28 -681 0 -682 0 6 38 c4 20 25 74 47 119 85 172 259 294 471
332 88 16 293 6 379 -19z"/>
<path d="M36905 23343 c-161 -13 -354 -62 -492 -124 -237 -106 -477 -317 -617
-543 -277 -444 -270 -1107 18 -1543 108 -164 287 -336 453 -436 363 -218 846
-266 1267 -126 333 111 633 351 792 635 20 36 33 69 28 73 -9 8 -610 291 -618
291 -2 0 -17 -21 -32 -47 -102 -178 -267 -301 -469 -354 -111 -29 -289 -29
-398 0 -261 69 -473 287 -530 546 -36 163 -30 322 18 473 75 238 294 437 534
488 99 21 269 18 369 -6 199 -48 370 -175 472 -350 24 -41 45 -76 45 -78 4 -6
625 292 625 301 0 6 -21 46 -47 91 -199 348 -552 598 -958 680 -144 29 -324
41 -460 29z"/>
<path d="M21765 23294 c-111 -17 -205 -38 -272 -61 -310 -103 -572 -333 -683
-599 -17 -42 -29 -78 -26 -81 6 -6 648 -215 650 -211 27 69 78 147 124 189
103 94 225 139 377 139 153 0 268 -44 365 -140 70 -68 103 -135 108 -217 l4
-62 -33 -5 c-19 -4 -198 -26 -399 -51 -477 -58 -543 -72 -716 -155 -218 -105
-382 -298 -441 -520 -28 -102 -25 -331 5 -435 35 -119 85 -207 175 -301 165
-174 363 -254 631 -254 174 0 331 43 480 132 67 39 214 176 269 248 l26 35 1
-177 0 -178 345 0 345 0 0 910 c0 998 1 982 -60 1130 -43 104 -112 203 -210
300 -175 174 -404 295 -650 345 -74 15 -356 28 -415 19z m643 -1701 c-9 -160
-63 -263 -184 -349 -197 -141 -551 -148 -681 -14 -42 43 -56 89 -51 156 9 102
89 175 229 210 52 13 605 89 673 93 17 1 18 -6 14 -96z"/>
<path d="M33975 23289 c-341 -47 -663 -241 -836 -503 -63 -95 -118 -221 -103
-235 5 -4 146 -52 313 -105 167 -54 310 -100 317 -103 7 -3 20 14 33 42 50
114 159 211 286 256 75 27 236 36 318 19 187 -38 340 -189 354 -349 l6 -60
-34 -5 c-19 -4 -205 -27 -413 -52 -212 -25 -419 -56 -471 -69 -361 -91 -600
-308 -676 -614 -18 -73 -21 -105 -17 -230 6 -168 28 -254 100 -376 49 -83 171
-206 251 -254 212 -125 511 -157 757 -80 164 51 323 161 437 302 l63 78 0
-181 0 -180 345 0 345 0 0 893 c0 560 -4 916 -10 957 -30 186 -106 328 -259
481 -190 189 -383 295 -639 349 -113 24 -359 34 -467 19z m685 -1658 c0 -198
-95 -351 -273 -435 -93 -44 -168 -59 -297 -60 -143 0 -234 27 -295 89 -49 48
-60 84 -53 170 8 95 75 157 210 195 59 17 597 94 686 99 20 1 22 -3 22 -58z"/>
<path d="M20450 23266 c-188 -42 -364 -149 -493 -301 l-57 -67 0 171 0 171
-345 0 -345 0 0 -1325 0 -1325 345 0 344 0 3 768 3 767 23 56 c55 131 182 255
337 329 119 57 189 71 363 77 l152 5 0 344 0 344 -137 -1 c-76 -1 -163 -7
-193 -13z"/>
<path d="M32685 23264 c-86 -19 -200 -67 -280 -119 -33 -21 -106 -85 -162
-142 l-103 -104 0 170 0 171 -345 0 -345 0 0 -1325 0 -1325 345 0 345 0 0 723
c0 796 1 805 62 918 59 112 164 207 305 278 110 55 192 73 361 78 l152 5 0
344 0 344 -132 -1 c-76 0 -163 -7 -203 -15z"/>
<path d="M5572 21053 l3 -1008 23 -43 c13 -24 40 -60 61 -80 24 -23 317 -192
792 -457 415 -230 986 -549 1269 -708 283 -160 542 -301 575 -314 74 -31 190
-41 266 -23 75 18 97 29 699 367 294 165 852 477 1240 693 753 420 777 435
822 534 l23 51 3 998 2 998 -72 -41 c-40 -22 -143 -79 -229 -126 -109 -60
-160 -94 -168 -111 -8 -18 -11 -226 -11 -733 1 -708 1 -709 -21 -760 -30 -69
-92 -122 -235 -199 -239 -129 -874 -483 -1498 -833 -406 -229 -646 -358 -660
-356 -12 2 -265 140 -564 307 -298 167 -829 464 -1179 660 -466 260 -641 363
-650 381 -10 20 -13 188 -13 775 0 413 0 755 0 761 0 9 -423 252 -472 272 -5
2 -7 -450 -6 -1005z"/>
<path d="M6588 21308 c-3 -237 -1 -273 23 -329 27 -61 73 -103 175 -159 43
-24 390 -217 769 -429 380 -212 716 -396 749 -409 131 -53 261 -38 425 49 309
165 1512 847 1540 873 66 61 71 84 71 344 l0 232 -42 -21 c-24 -12 -360 -200
-748 -417 -388 -218 -784 -440 -880 -494 -195 -110 -216 -115 -290 -72 -99 57
-1727 972 -1757 988 l-33 17 -2 -173z"/>
</g>
</svg>
